<?xml version="1.0" standalone="no"?>
<!DOCTYPE svg PUBLIC "-//W3C//DTD SVG 20010904//EN"
 "http://www.w3.org/TR/2001/REC-SVG-20010904/DTD/svg10.dtd">
<svg version="1.0" xmlns="http://www.w3.org/2000/svg"
 width="500.000000pt" height="500.000000pt" viewBox="0 0 500.000000 500.000000"
 preserveAspectRatio="xMidYMid meet">

<g transform="translate(0.000000,500.000000) scale(0.100000,-0.100000)"
fill="#000000" stroke="none">
<path d="M2762 4620 c5 -17 8 -61 6 -98 -5 -83 -40 -165 -101 -232 -50 -56
-72 -117 -71 -200 1 -69 26 -126 93 -209 81 -100 100 -198 61 -309 -26 -74
-65 -114 -114 -115 -64 -2 -143 81 -172 178 -14 51 -14 59 7 146 20 79 21 94
9 112 -8 12 -15 42 -15 67 0 42 -2 45 -29 48 -16 2 -33 -1 -39 -7 -6 -6 -11
-48 -11 -93 -1 -78 -3 -87 -38 -143 -73 -118 -74 -188 -4 -343 48 -107 59
-159 54 -252 -4 -71 -8 -85 -35 -118 -33 -41 -85 -80 -119 -88 -15 -4 -34 2
-56 19 -18 14 -45 30 -60 36 -55 21 -184 42 -263 42 -155 2 -248 -45 -280
-141 -15 -46 -15 -54 -1 -104 15 -51 69 -161 106 -216 9 -14 37 -63 62 -110
25 -47 75 -137 111 -200 36 -63 84 -151 107 -194 22 -44 64 -118 92 -165 92
-154 115 -195 142 -249 l26 -52 -73 -133 c-41 -72 -94 -166 -119 -207 -25 -41
-74 -124 -109 -185 -35 -60 -71 -121 -79 -135 -8 -14 -28 -50 -45 -79 -16 -29
-72 -124 -124 -210 -128 -211 -124 -203 -125 -290 -1 -97 19 -135 93 -175 129
-69 418 -36 589 68 75 45 110 83 171 186 28 47 75 123 105 170 30 47 82 132
116 190 128 220 153 255 186 258 37 4 42 -1 137 -158 73 -120 226 -369 314
-509 90 -144 265 -227 498 -238 96 -5 132 -2 178 11 104 30 150 93 149 202 0
66 -15 99 -138 306 -54 93 -146 249 -204 348 -58 99 -151 258 -208 353 -56 94
-106 187 -112 206 -11 39 1 73 53 154 46 71 147 251 174 309 12 26 37 71 56
100 19 29 67 114 107 188 40 74 102 186 137 248 92 161 103 188 103 256 0 79
-27 125 -94 163 -48 27 -57 28 -176 28 -132 -1 -234 -20 -297 -55 l-31 -18
-50 34 c-68 46 -116 107 -141 181 -41 122 -22 246 64 428 53 110 75 193 75
278 0 79 -19 135 -68 201 -54 74 -62 97 -62 193 l0 86 -21 -19 c-36 -32 -76
-97 -83 -135 -3 -20 0 -65 7 -100 24 -118 -7 -220 -77 -253 -46 -22 -72 -20
-120 8 -115 68 -159 251 -101 426 14 41 25 92 25 115 -1 84 -52 170 -120 205
l-39 20 11 -30z m89 -1600 c10 -6 28 -27 39 -48 11 -20 38 -64 60 -97 43 -66
133 -214 139 -230 2 -5 14 -24 27 -40 l23 -30 -39 -65 c-21 -36 -45 -76 -52
-90 -30 -54 -129 -218 -160 -265 -27 -40 -39 -51 -65 -53 -28 -3 -36 3 -63 39
-42 59 -115 180 -219 363 l-43 77 20 22 c12 12 43 60 70 107 73 125 159 261
186 293 26 29 46 33 77 17z"/>
</g>
</svg>
